<?xml version="1.0" encoding="iso-8859-1"?>
<!-- Generator: Adobe Illustrator 16.0.0, SVG Export Plug-In . SVG Version: 6.00 Build 0)  -->
<!DOCTYPE svg PUBLIC "-//W3C//DTD SVG 1.1//EN" "http://www.w3.org/Graphics/SVG/1.1/DTD/svg11.dtd">
<svg version="1.1" id="Capa_1" xmlns="http://www.w3.org/2000/svg" xmlns:xlink="http://www.w3.org/1999/xlink" x="0px" y="0px"
	 width="264.989px" height="264.99px" viewBox="0 0 264.989 264.99" style="enable-background:new 0 0 264.989 264.99;"
	 xml:space="preserve">
<g>
	<g>
		<path d="M174.76,182.846l-16.125-71.898c-0.272-1.231-1.365-2.102-2.625-2.102h-23.518h-23.517c-1.271,0-2.368,0.887-2.63,2.128
			l-16.126,75.727c-0.171,0.802,0.037,1.648,0.559,2.277c0.313,0.368,30.969,37.928,30.969,73.313c0,1.48,1.202,2.688,2.688,2.688
			c1.483,0,2.688-1.207,2.688-2.688v-69.125c0-0.119-0.055-0.23-0.071-0.34c-0.026-0.195-0.047-0.385-0.113-0.562
			c-0.052-0.147-0.128-0.268-0.209-0.39c-0.102-0.179-0.205-0.351-0.344-0.503c-0.071-0.079-0.156-0.127-0.231-0.2
			c-0.145-0.12-0.268-0.272-0.447-0.361c-4.764-2.558-7.725-7.439-7.725-12.746c0-5.308,2.961-10.189,7.73-12.745
			c4.386-2.357,9.197-2.357,13.583,0h0.005c4.766,2.556,7.727,7.438,7.727,12.745c0,5.307-2.961,10.188-7.727,12.746
			c-0.571,0.31-0.955,0.803-1.187,1.363c-0.005,0.017-0.016,0.032-0.025,0.048c-0.098,0.252-0.138,0.503-0.153,0.766
			c-0.011,0.101-0.052,0.179-0.052,0.279v69.035c0,1.479,1.202,2.688,2.688,2.688s2.688-1.208,2.688-2.688
			c0-33.659,30.761-76.856,31.077-77.287C174.772,184.374,174.934,183.592,174.76,182.846z"/>
		<path d="M107.97,101.46h49.052c1.366,0,2.521-1.026,2.667-2.387L170.44,2.989c0.089-0.763-0.152-1.522-0.672-2.092
			c-0.51-0.57-1.233-0.897-2-0.897H97.219c-0.764,0-1.496,0.327-2.005,0.897c-0.513,0.564-0.754,1.329-0.672,2.092l10.751,96.085
			C105.448,100.428,106.602,101.46,107.97,101.46z"/>
	</g>
</g>
<g>
</g>
<g>
</g>
<g>
</g>
<g>
</g>
<g>
</g>
<g>
</g>
<g>
</g>
<g>
</g>
<g>
</g>
<g>
</g>
<g>
</g>
<g>
</g>
<g>
</g>
<g>
</g>
<g>
</g>
</svg>
