<?xml version="1.0" encoding="iso-8859-1"?>
<!-- Generator: Adobe Illustrator 18.1.1, SVG Export Plug-In . SVG Version: 6.00 Build 0)  -->
<svg version="1.1" id="Capa_1" xmlns="http://www.w3.org/2000/svg" xmlns:xlink="http://www.w3.org/1999/xlink" x="0px" y="0px"
	 viewBox="0 0 317.105 317.105" style="enable-background:new 0 0 317.105 317.105;" xml:space="preserve">
<g>
	<path style="fill:#010002;" d="M51.655,209.885c-1.158,1.158-1.79,2.745-1.742,4.38l0.632,23.396l-25.508,1.074
		c-2.488,0.107-4.654,1.742-5.424,4.111L0.274,302.264c-0.191,0.579-0.269,1.164-0.274,1.76c0,0.125,0.03,0.239,0.036,0.37
		c0.03,0.567,0.137,1.122,0.322,1.653c0.066,0.179,0.125,0.358,0.209,0.531c0.292,0.633,0.65,1.241,1.164,1.754
		c0.573,0.573,1.241,1.008,1.963,1.301c0.722,0.298,1.492,0.448,2.255,0.448c0.621,0,1.241-0.095,1.85-0.292l59.418-19.333
		c2.369-0.776,4.01-2.936,4.111-5.424l1.062-25.216l22.591,1.038c0.095,0.006,0.185,0.006,0.274,0.006
		c1.581,0,3.097-0.621,4.219-1.748L224.45,134.13l-48.517-48.523L51.655,209.885z M59.579,280.39l-31.827,10.358l12.22-12.226
		c2.434,0.119,4.899-0.674,6.76-2.536c3.497-3.497,3.497-9.165,0-12.662c-3.491-3.491-9.165-3.491-12.656,0
		c-1.856,1.862-2.655,4.326-2.536,6.76l-12.22,12.214l10.353-31.815l31.219-1.313L59.579,280.39z"/>
	<path style="fill:#010002;" d="M315.355,62.921l-14.064-14.064L261.212,8.772c-1.122-1.122-2.631-1.748-4.219-1.748
		s-3.103,0.627-4.219,1.748L184.37,77.17l48.517,48.523l64.186-64.186l5.627,5.627l-68.213,68.213c-2.333,2.333-2.333,6.104,0,8.437
		c1.164,1.164,2.691,1.748,4.219,1.748s3.055-0.585,4.219-1.748l72.432-72.426C317.688,69.026,317.688,65.248,315.355,62.921z"/>
</g>
<g>
</g>
<g>
</g>
<g>
</g>
<g>
</g>
<g>
</g>
<g>
</g>
<g>
</g>
<g>
</g>
<g>
</g>
<g>
</g>
<g>
</g>
<g>
</g>
<g>
</g>
<g>
</g>
<g>
</g>
</svg>
