<?xml version="1.0" encoding="iso-8859-1"?>
<!-- Generator: Adobe Illustrator 18.0.0, SVG Export Plug-In . SVG Version: 6.00 Build 0)  -->
<!DOCTYPE svg PUBLIC "-//W3C//DTD SVG 1.1//EN" "http://www.w3.org/Graphics/SVG/1.1/DTD/svg11.dtd">
<svg version="1.1" id="Capa_1" xmlns="http://www.w3.org/2000/svg" xmlns:xlink="http://www.w3.org/1999/xlink" x="0px" y="0px"
	 viewBox="0 0 294.673 294.673" style="enable-background:new 0 0 294.673 294.673;" xml:space="preserve">
<g>
	<path d="M171.523,245.902c-1.407-1.405-3.314-2.194-5.301-2.194c-0.018,0-0.035,0-0.053,0c-2.006,0.015-3.923,0.831-5.322,2.27
		l-22.416,23.032l-27.654-19.372c-3.228-2.262-7.656-1.639-10.134,1.427l-15.47,19.127l-13.486-17.136l-13.791,6.731L79.2,286.855
		c1.411,1.793,3.562,2.846,5.844,2.861c2.281,0.041,4.446-1.01,5.881-2.784l16.979-20.993l27.148,19.018
		c3.013,2.111,7.111,1.724,9.678-0.912l21.567-22.16l30.623,30.595c1.465,1.463,3.382,2.194,5.301,2.194
		c1.92,0,3.841-0.733,5.306-2.199c2.928-2.931,2.926-7.679-0.005-10.606L171.523,245.902z"/>
	<path d="M269.02,48.846L223.283,3.11c-4.146-4.147-10.869-4.147-15.016,0L56.995,154.382l60.753,60.753L269.02,63.862
		C273.166,59.715,273.166,52.993,269.02,48.846z M183.553,123.238c-17.421,17.422-39.304,23.786-48.876,14.215
		c-9.57-9.571-3.206-31.454,14.216-48.876c17.421-17.422,39.304-23.785,48.875-14.215
		C207.338,83.934,200.974,105.816,183.553,123.238z"/>
	<path d="M85.501,232.366c4.146,4.146,10.869,4.146,15.016,0.001l5.957-5.957l-60.753-60.753l-5.957,5.957
		c-1.991,1.991-3.11,4.691-3.11,7.508c0,2.816,1.118,5.517,3.109,7.508l3.206,3.205l-19.374,43.98
		c-2.06,4.68-1.037,10.145,2.579,13.761c2.38,2.38,5.554,3.632,8.771,3.632c1.844,0,3.701-0.41,5.434-1.256l42.138-20.57
		L85.501,232.366z"/>
</g>
<g>
</g>
<g>
</g>
<g>
</g>
<g>
</g>
<g>
</g>
<g>
</g>
<g>
</g>
<g>
</g>
<g>
</g>
<g>
</g>
<g>
</g>
<g>
</g>
<g>
</g>
<g>
</g>
<g>
</g>
</svg>
